<svg id="Flat" height="512" viewBox="0 0 512 512" width="512" xmlns="http://www.w3.org/2000/svg"><path d="m488 256a231.642 231.642 0 1 1 -19.12-92.38 231.206 231.206 0 0 1 19.12 92.38z" fill="#a17837"/><g fill="#805a2f"><path d="m338.25 39.01-6 24a45.351 45.351 0 0 1 -18.82 26.7l-4.64 3.1a45.287 45.287 0 0 0 -17.85 52.01l2.74 8.21a45.306 45.306 0 0 1 -28.65 57.29l-10.06 3.36a45.255 45.255 0 0 1 -14.32 2.32h-13.89a45.294 45.294 0 0 1 -32.03-13.27l-3.06-3.06a45.271 45.271 0 0 1 -12.92-37.65l4.34-34.73a45.543 45.543 0 0 0 -.53-14.5l-3.87-19.34a45.258 45.258 0 0 0 -12.39-23.15l-19.2-19.2a232.567 232.567 0 0 1 191.15-12.09z"/><path d="m72 272.371v-23.971a25.2 25.2 0 0 1 5.04-15.119l11.4-15.2a25.2 25.2 0 0 1 20.16-10.081h8.964a25.2 25.2 0 0 1 17.817 7.38l33.24 33.24a25.2 25.2 0 0 0 17.816 7.38h28.5a25.2 25.2 0 0 1 23.4 15.84l3.493 8.733a25.2 25.2 0 0 1 -5.578 27.176l-2.715 2.715a25.2 25.2 0 0 1 -22.76 6.891l-22.5-4.5a25.2 25.2 0 0 1 -8.023-3.1l-19.384-11.633a25.2 25.2 0 0 0 -30.782 3.79 25.2 25.2 0 0 1 -23.929 6.628l-8.708-2.177a25.2 25.2 0 0 1 -14.851-10.469l-6.364-9.546a25.2 25.2 0 0 1 -4.236-13.977z"/><path d="m285.54 408.71a35.985 35.985 0 0 1 -.7 7.07l-.13.69a36 36 0 0 1 -28.24 28.24l-.4.08a36 36 0 0 0 -24.2 17.44l-13.03 22.81a232.167 232.167 0 0 1 -161.76-109.58l42.08-21.04a36.147 36.147 0 0 1 10.18-3.31l21.07-3.51a36 36 0 0 1 34.72 13.91l.07.09a36.018 36.018 0 0 0 28.8 14.4h33.57a36.226 36.226 0 0 0 8.73-1.07l4.51-1.13a35.994 35.994 0 0 1 44.73 34.91z"/><path d="m467.27 352a232.626 232.626 0 0 1 -146.72 126.9l12.02-24.03a32.658 32.658 0 0 0 3.43-14.55v-26.85a32.541 32.541 0 0 0 -9.53-23l-10.74-10.74a32.381 32.381 0 0 1 -6.09-8.45l-18.21-36.41a32.658 32.658 0 0 1 -3.43-14.55v-21.48a32.516 32.516 0 0 1 6.5-19.51l1.22-1.62a32.509 32.509 0 0 1 53.07 1.48l19.74 29.6a32.482 32.482 0 0 0 20.68 13.85l17.13 3.43a32.511 32.511 0 0 1 16.62 8.89l7.51 7.51a32.541 32.541 0 0 0 23 9.53z"/><path d="m436.41 183.19a21.9 21.9 0 0 0 -.75 17.96l8.05 20.13a21.915 21.915 0 0 1 -2.11 20.32l-.72 1.08a21.943 21.943 0 0 1 -24.28 8.92l-35.13-10.04a21.864 21.864 0 0 1 -9.49-5.58l-15.01-15.01a21.986 21.986 0 0 1 -6.13-11.91l-6.54-39.27a21.8 21.8 0 0 1 -.3-3.61v-24.1a21.9 21.9 0 0 1 3.13-11.29l20.1-33.51a22.069 22.069 0 0 0 1.36-2.65l14.14-32.99a232.874 232.874 0 0 1 86.15 101.98l-21.49 9.21a21.976 21.976 0 0 0 -10.98 10.36z"/></g></svg>